<svg version="1.2" xmlns="http://www.w3.org/2000/svg" viewBox="0 0 27 30">
	<title>Last Mission</title>
    <g scale="50%">
        <path fill="#eff373" d="m12 3c0 1.7-0.5 3-1 3-0.6 0-1 1.2-1 2.8 0 1.6-0.8 3.3-2 4.2-1.1 0.8-2 2.3-2 3.3 0 0.9-0.4 1.7-1 1.7-0.6 0-1-2.3-1-5 0-2.8-0.4-5-1-5-0.6 0-1 0.9-1 2 0 1.1-0.4 2-1 2-0.6 0-1 3.7-1 9 0 5 0.3 9 0.8 9 0.4 0 1.4-0.9 2.2-2 0.8-1.1 1.8-2 2.3-2 0.4 0 0.7 0.9 0.7 2q0 2 2 2c1.1 0 2-0.5 2-1 0-0.5 1.6-1 3.5-1 1.9 0 3.5 0.5 3.5 1 0 0.5 0.9 1 2 1q2 0 2-2c0-1.1 0.3-2 0.8-2 0.4 0 1.4 0.9 2.2 2 0.8 1.1 1.8 2 2.3 2 0.4 0 0.7-4 0.7-9 0-5.3-0.4-9-1-9-0.5 0-1-0.9-1-2 0-1.1-0.5-2-1-2-0.5 0-1 2.3-1 5 0 2.8-0.5 5-1 5-0.5 0-1-0.8-1-1.7 0-1-0.9-2.5-2-3.3-1.2-0.9-2-2.6-2-4.3 0-1.5-0.5-2.7-1-2.7-0.5 0-1-1.3-1-3q0-3-1.5-3-1.5 0-1.5 3z"/>
        <path fill="#7b797b" d="m10.3 16.6c-1.3 1.3-2.3 2.8-2.3 3.4 0 0.5 1.1 2.1 2.5 3.5 1.4 1.4 2.7 2.5 3 2.5 0.3 0 1.7-1.1 3-2.5 1.4-1.4 2.5-3 2.5-3.5 0-0.6-1.1-2.1-2.5-3.5-1.4-1.4-2.8-2.5-3.3-2.4-0.4 0-1.7 1.1-3 2.5z"/>
    </g>
</svg>