<svg id="speedHud" version="1.2" xmlns="http://www.w3.org/2000/svg" viewBox="0 0 952 532">
	<title>Speed</title>
	<g>
		<path id="fons" d="m451 1.1c-5.8 0.4-15.9 1.3-22.5 1.9-6.6 0.6-19.2 2.2-28 3.6-8.8 1.4-23 4.1-31.5 6.1-8.5 1.9-21.4 5.2-28.5 7.3-7.1 2.1-20.2 6.5-29 9.8-8.8 3.3-22.1 8.7-29.5 12-7.4 3.2-19.1 9-26 12.6-6.9 3.7-19.3 10.8-27.5 15.7-8.3 5-18.9 11.8-23.7 15.2-4.7 3.4-14.2 10.5-20.9 15.7-6.8 5.2-17.5 14.2-23.8 20-6.4 5.8-16.5 15.5-22.6 21.5-6 6.1-15.1 15.8-20.2 21.5-5.1 5.8-13.1 15.4-17.8 21.5-4.7 6.1-12.3 16.6-16.9 23.5-4.7 6.9-11.7 17.9-15.6 24.5-4 6.6-12.1 21.9-18 34-6 12.1-12.5 26.3-14.5 31.5-2.1 5.2-5.7 15.1-8.2 22-2.4 6.9-6.1 18.8-8.2 26.5-2.2 7.7-5 19.2-6.5 25.5-1.4 6.3-3.7 18.3-5 26.5-1.4 8.3-3.3 22-4.2 30.5-1 9.9-1.8 31.1-2.2 58.8l-0.7 43.2h952.5c0.4-34.5 0-56.2-0.7-70.5-0.6-14.3-1.7-30.7-2.3-36.5-0.6-5.8-2-16-3.1-22.7-1-6.8-3.3-18.7-4.9-26.5-1.7-7.9-4.4-19.2-6.1-25.3-1.8-6.1-5.3-17.3-7.9-25-2.6-7.7-6.6-18.7-8.8-24.5-2.2-5.8-6.6-16.1-9.7-23-3.1-6.9-8.2-17.2-11.2-23-3.1-5.8-9-16.1-13.1-23-4.1-6.9-10.4-16.8-14-22-3.6-5.2-10.2-14.4-14.7-20.5-4.6-6.1-12.7-16.2-18.1-22.5-5.5-6.3-14.4-16.2-19.9-21.9-5.5-5.7-16.5-16.2-24.5-23.4-8-7.1-21.5-18.2-30-24.6-8.5-6.4-18.9-14-23-16.7-4.1-2.8-13.7-8.7-21.3-13.2-7.5-4.5-19.7-11.2-27-14.8-7.2-3.7-17.2-8.5-22.2-10.7-5-2.2-11.7-5.1-15-6.4-3.3-1.3-11-4.2-17-6.5-6-2.2-16-5.5-22-7.4-6-1.9-18.2-5.3-27-7.4-8.8-2.2-22.5-5.1-30.5-6.5-8-1.4-21.5-3.2-30-4-8.5-0.8-23.3-1.9-32.8-2.5-9.4-0.5-20.9-0.9-25.5-0.9-4.5 0.1-12.9 0.5-18.7 1z"/>
		<path id="speed0" class="speed active" d="M110 470a32 32 0 1 0 -64 0 32 32 0 1 0 64 0z"/>
		<path id="speed1" class="speed" d="M140 310a32 32 0 1 0 0-64 32 32 0 1 0 0 64z"/>
		<path id="speed2" class="speed" d="M300 140a32 32 0 1 0 -64 0 32 32 0 1 0 64 0z"/>
		<path id="speed3" class="speed" d="M500 80a32 32 0 1 0 -64 0 32 32 0 1 0 64 0z"/>
		<path id="speed4" class="speed" d="M700 140a32 32 0 1 0 -64 0 32 32 0 1 0 64 0z"/>
		<path id="speed5" class="speed" d="M820 310a32 32 0 1 0 0-64 32 32 0 1 0 0 64z"/>
		<path id="speed6" class="speed" d="M870 500a32 32 0 1 0 0-64 32 32 0 1 0 0 64z"/>
        <rect class="kphud" x="216" y="230" rx="40" ry="40" width="520" height="160"/>
        <g id="kph" class="kph0" transform="translate(240,250)">
            <g transform="scale(0.5)">
                <path id="d3l0" d="m20 17.5l17.5 17.5h83l34.9-35h-152.9z"/>
                <path id="d3l1" d="m0 55.5v53l17.5 17.5 17.5-17.5v-71l-35-35z"/>
                <path id="d3l2" d="m140 20l-17.5 17.5 0.5 71 17.5 17.5 17.5-17.5-0.5-106z"/>
                <path id="d3l3" d="m28.7 118.8l-8.7 8.7 17.5 17.5h83l17.5-17.5-17.5-17.5h-83z"/>
                <path id="d3l4" d="m8.5 137.8l-9 8.7 0.5 106 35-35v-71l-17.5-17.5z"/>
                <path id="d3l5" d="m131.5 137.8l-9 8.7 0.5 71 35 35v-106l-17.5-17.5z"/>
                <path id="d3l6" d="m20 237.5l-17.5 17.5h153l-35-35h-83z"/>
            </g>
            <g transform="scale(0.5) translate(180,0)">
                <path id="d2l0" d="m20 17.5l17.5 17.5h83l34.9-35h-152.9z"/>
                <path id="d2l1" d="m0 55.5v53l17.5 17.5 17.5-17.5v-71l-35-35z"/>
                <path id="d2l2" d="m140 20l-17.5 17.5 0.5 71 17.5 17.5 17.5-17.5-0.5-106z"/>
                <path id="d2l3" d="m28.7 118.8l-8.7 8.7 17.5 17.5h83l17.5-17.5-17.5-17.5h-83z"/>
                <path id="d2l4" d="m8.5 137.8l-9 8.7 0.5 106 35-35v-71l-17.5-17.5z"/>
                <path id="d2l5" d="m131.5 137.8l-9 8.7 0.5 71 35 35v-106l-17.5-17.5z"/>
                <path id="d2l6" d="m20 237.5l-17.5 17.5h153l-35-35h-83z"/>
            </g>
            <g transform="scale(0.5) translate(360,0)">
                <path id="d1l0" d="m20 17.5l17.5 17.5h83l34.9-35h-152.9z"/>
                <path id="d1l1" d="m0 55.5v53l17.5 17.5 17.5-17.5v-71l-35-35z"/>
                <path id="d1l2" d="m140 20l-17.5 17.5 0.5 71 17.5 17.5 17.5-17.5-0.5-106z"/>
                <path id="d1l3" d="m28.7 118.8l-8.7 8.7 17.5 17.5h83l17.5-17.5-17.5-17.5h-83z"/>
                <path id="d1l4" d="m8.5 137.8l-9 8.7 0.5 106 35-35v-71l-17.5-17.5z"/>
                <path id="d1l5" d="m131.5 137.8l-9 8.7 0.5 71 35 35v-106l-17.5-17.5z"/>
                <path id="d1l6" d="m20 237.5l-17.5 17.5h153l-35-35h-83z"/>
            </g>
            <g transform="scale(0.5) translate(540,0)">
                <path id="d0l0" class="on" d="m20 17.5l17.5 17.5h83l34.9-35h-152.9z"/>
                <path id="d0l1" class="on" d="m0 55.5v53l17.5 17.5 17.5-17.5v-71l-35-35z"/>
                <path id="d0l2" class="on" d="m140 20l-17.5 17.5 0.5 71 17.5 17.5 17.5-17.5-0.5-106z"/>
                <path id="d0l3" d="m28.7 118.8l-8.7 8.7 17.5 17.5h83l17.5-17.5-17.5-17.5h-83z"/>
                <path id="d0l4" class="on" d="m8.5 137.8l-9 8.7 0.5 106 35-35v-71l-17.5-17.5z"/>
                <path id="d0l5" class="on" d="m131.5 137.8l-9 8.7 0.5 71 35 35v-106l-17.5-17.5z"/>
                <path id="d0l6" class="on" d="m20 237.5l-17.5 17.5h153l-35-35h-83z"/>
            </g>
            <text class="kmh" x="375" y="52">KM</text>
            <text class="kmh" x="390" y="117">/H</text>
        </g>
		<path id="meterHud" d="m468.8 421.1c-3.5 0.5-9.5 2.8-15.1 5.5-6.7 3.4-11.1 6.5-16.2 11.5-4.4 4.3-8.1 7-10 7.4-1.6 0.3-8.4 1-15 1.5-6.6 0.5-35.2 2.8-63.5 5-28.3 2.2-69.5 5.6-91.5 7.5-22 1.9-47.4 4.2-56.5 5-9.1 0.9-23.7 2.3-32.5 3.1-8.8 0.8-24.3 2.7-34.5 4-10.2 1.4-18.8 2.7-19.3 3-0.4 0.2-0.7 0.8-0.7 1.4 0 0.5 1.7 1.5 3.7 2 2.1 0.6 7.2 1.5 11.3 2.1 4.1 0.5 13.6 1.6 21 2.4 7.4 0.7 27 2.7 43.5 4.4 16.5 1.7 38.5 3.7 49 4.6 10.4 0.8 33.4 2.6 51 4 17.6 1.3 34 2.7 36.5 3 2.5 0.3 10.4 1 17.5 1.5 7.1 0.5 27.4 2.1 45 3.5 17.6 1.4 33 2.5 34.2 2.5 1.5 0 5.2 2.7 10 7.3 4.3 4 10 8.6 12.8 10.2 2.7 1.6 7 3.7 9.5 4.6 2.5 1 8.1 2.2 12.5 2.7 5.2 0.7 10.4 0.7 15 0 3.9-0.5 9.2-1.9 12-3.2 2.7-1.2 7.7-4 11-6.3 3.3-2.2 7.7-6 9.8-8.4 2.1-2.4 5.1-6.7 6.7-9.4 1.5-2.8 3.8-8.1 4.9-12 1.5-4.9 2.1-9.7 2.1-15.8 0-6.5-0.6-10.7-2.5-16.5-1.3-4.2-4.2-10.4-6.4-13.7-2.1-3.3-6.3-8.2-9.2-10.8-3-2.7-8.5-6.4-12.4-8.3-3.9-1.9-10.1-4.1-14-4.9-3.9-0.8-8.6-1.4-10.5-1.4-1.9 0.1-6.1 0.5-9.3 1z"/>
		<path id="axis" d="M500 470a32 32 0 1 0 -64 0 32 32 0 1 0 64 0z"/>
	</g>
</svg>