<svg id="title" version="1.2" xmlns="http://www.w3.org/2000/svg" viewBox="0 0 203 92">
	<title>Title</title>
	<style>
		.s0
		{
			opacity: 0.5;
			fill: none;
			stroke: #000000;
			stroke-miterlimit: 100;
		} 
		.s1
		{
			fill: #292c9c;
		} 
		.s2
		{
			fill: #843039;
		} 
		.s3
		{
			fill: #c66d73;
		} 
		.s4
		{
			fill: #8c3c94;
		} 
	</style>
	<g>
		<path class="s0" d="m3.3 83.5c-0.7 0.8-1.3 2.2-1.3 3 0 0.8-0.4 1.5-1 1.5-0.5 0-1 0.9-1 2 0 1.6 0.7 2 3 2 2.3 0 3-0.4 3-2 0-1.1 0.4-2.1 0.8-2.3 0.5-0.1 1.2-1.4 1.5-3 0.6-2.3 0.4-2.7-1.5-2.7-1.3 0.1-2.9 0.7-3.5 1.5zm35.7 3.5c0 4.9 0.1 5 3 5 2.9 0 3-0.1 3-5 0-4.9-0.1-5-3-5-2.9 0-3 0.1-3 5zm12 0c0 4.7 0.2 5 2.5 5 2.3 0 2.5-0.3 2.5-5 0-4.7-0.2-5-2.5-5-2.3 0-2.5 0.3-2.5 5zm30-4c0 0.5-1.8 1-4 1-2.2 0-4 0.5-4 1 0 0.5-2.5 1-5.5 1-5.4 0-5.5 0-5.5 3 0 3 0.1 3 5.5 3 3 0 5.5-0.5 5.5-1 0-0.5 1.8-1 4-1 2.2 0 4-0.5 4-1 0-0.5 0.7-1 1.5-1 0.8 0 1.5-0.5 1.5-1 0-0.5 0.7-1 1.6-1 0.8 0 2.2-0.7 3-1.5 0.8-0.8 1.4-1.7 1.4-2 0-0.3-2-0.5-4.5-0.5-2.5 0-4.5 0.5-4.5 1zm33 0c0 0.5-1.6 1-3.5 1-1.9 0-3.5 0.5-3.5 1 0 0.5-2.5 1-5.5 1-5.4 0-5.5 0-5.5 3 0 3 0.1 3 5.5 3 3 0 5.5-0.5 5.5-1 0-0.5 1.6-1 3.5-1 1.9 0 3.5-0.5 3.5-1 0-0.5 0.9-1 2-1 1.1 0 2-0.5 2-1 0-0.5 0.7-1 1.6-1 0.8 0 2.2-0.7 3-1.5 0.8-0.8 1.4-1.7 1.4-2 0-0.3-2.3-0.5-5-0.5-2.8 0-5 0.5-5 1zm15 4c0 4.9 0.1 5 3 5 2.9 0 3-0.1 3-5 0-4.9-0.1-5-3-5-2.9 0-3 0.1-3 5zm12-4.5c0 0.3 0.6 1.2 1.2 2 0.7 0.9 2.5 2.9 4 4.5 2.5 2.6 3.5 3 8.3 3 5.2 0 5.8-0.2 10-4.5 2.5-2.5 4.5-4.7 4.5-5 0-0.3-2.3-0.5-5-0.5-4.2 0-5.1 0.3-5.5 2-0.3 1.4-1.3 2-3.3 2-1.6 0-3.3-0.8-4.2-2-1.1-1.5-2.6-2-5.8-2-2.3 0-4.2 0.2-4.2 0.5zm33 4.5c0 4.9 0.1 5 3 5 2.9 0 3-0.1 3-5 0-4.9-0.1-5-3-5-2.9 0-3 0.1-3 5zm17-4c0 0.5 0.4 1 1 1 0.6 0 1 0.7 1 1.5 0 0.8 1.1 2.6 2.5 4 1.4 1.4 3.6 2.5 5 2.5 2.3 0 2.5-0.3 2.5-5v-5c-9.3 0-12 0.4-12 1zm-172.8-31.5c-0.6 0.8-1.2 2.2-1.2 3 0 0.8-0.4 1.5-1 1.5-0.5 0-1 0.9-1 2 0 1.1-0.4 2-1 2-0.5 0-1 0.9-1 2 0 1.1-0.4 2-1 2-0.5 0-1 0.5-1 1 0 0.5 0.9 1 2 1 1.1 0 2 0.5 2 1 0 0.5 0.5 1 1 1 0.6 0 1-0.9 1-2 0-1.1 0.5-2 1-2 0.6 0 1-0.9 1-2q0-2 2-2c1.3 0 2.2 0.9 2.7 2.8 0.4 1.5 1.7 3.7 3 5 1.3 1.2 2.5 2.2 2.8 2.2 0.3 0 0.5-0.9 0.5-2 0-1.1 0.7-2 1.5-2 0.8 0 2.9-1.3 4.5-3l3-3c0 5.7 0.3 6 3 6h3c0-10.9-0.5-13.5-1.5-14.5-0.8-0.8-2.2-1.5-3-1.5-0.8 0-1.5 0.5-1.5 1 0 0.5-2.2 3.3-5 6-4.4 4.4-5.2 4.8-6.5 3.5-0.8-0.8-1.5-2.2-1.5-3 0-0.8-0.3-1.5-0.7-1.5-0.5 0-1.1-1.3-1.5-3-0.5-1.9-1.4-3-2.5-3-1 0.1-2.4 0.7-3 1.5zm32.7 6.5c0 7.9 0 8 2.5 8 2.5 0 2.5-0.1 2.5-8 0-7.9 0-8-2.5-8-2.5 0-2.5 0.1-2.5 8zm28-7c0 0.5-1.8 1-4 1-2.2 0-4 0.5-4 1 0 0.5-0.5 1-1 1-0.6 0-2.6 1.6-4.5 3.5-2.1 2.1-3.5 4.5-3.5 6 0 2.1 0.5 2.5 2.8 2.5 2.2 0 2.8-0.5 3.5-3 0.5-2.1 1.3-3 2.7-3 1.1 0 2-0.5 2-1 0-0.5 1.8-1 4-1 2.2 0 4-0.5 4-1 0-0.5 2-1 4.5-1 4.3 0 4.5-0.1 4.5-3 0-3-0.1-3-5.5-3-3 0-5.5 0.5-5.5 1zm34 0c0 0.5-1.8 1-4 1-2.2 0-4 0.5-4 1 0 0.5-0.8 1-1.8 1-0.9 0-2.4 1-3.2 2.1-0.8 1.2-2.1 2.8-2.7 3.5-0.7 0.8-1.3 2.5-1.3 3.9 0 2 0.5 2.5 2.5 2.5 1.6 0 2.5-0.6 2.5-1.5 0-0.8 0.6-2.2 1.4-3 0.8-0.8 2.2-1.5 3-1.5 0.9 0 1.6-0.5 1.6-1 0-0.5 1.6-1 3.5-1 1.9 0 3.5-0.5 3.5-1 0-0.5 2.3-1 5-1 4.9 0 5-0.1 5-3 0-3-0.1-3-5.5-3-3 0-5.5 0.5-5.5 1zm16 7v8h6v-16h-6zm17-4.9c-1.4 1.6-3.1 3.7-3.7 4.4-0.7 0.8-1.3 3.1-1.3 5 0 3.1 0.3 3.5 2.5 3.5 1.6 0 2.5-0.6 2.5-1.5 0-0.8 1.6-3.1 3.5-5 2.1-2.2 4.4-3.5 6-3.5 1.4 0 2.5 0.5 2.5 1 0 0.5 1.1 2.1 2.5 3.5 1.4 1.4 2.5 3.2 2.5 4q0 1.5 3 1.5c2.8 0 3-0.3 3-3.5 0-2.8-0.9-4.4-4.5-8-4.3-4.3-4.8-4.5-10.2-4.5-5.2 0.1-6.1 0.4-8.3 3.1zm28 4.9v8c5.7 0 6-0.3 6-3 0-1.6 0.4-3 1-3 0.6 0 1 0.7 1 1.5 0 0.8 0.7 2.2 1.5 3 0.8 0.8 2.2 1.5 3 1.5 0.8 0 1.5-0.9 1.5-2 0-1.1-0.4-2-1-2-0.6 0-1-0.9-1-2 0-1.1-0.4-2-1-2-0.6 0-1-0.7-1-1.5 0-0.8-1.1-2.6-2.5-4-1.4-1.4-3.6-2.5-5-2.5-2.5 0-2.5 0.1-2.5 8zm23 0v8h6v-16h-6zm-125-53.9c-1.9 2.2-6.9 7.6-11 11.9-4.1 4.4-11 11.6-15.2 16-4.3 4.4-7.8 8.5-7.8 9 0 0.7 22 1 64 1h64.1c5.3-5.4 6.9-7.2 6.9-7.5 0-0.3-25.9-0.5-57.5-0.5-31.6 0-57.5-0.2-57.5-0.5 0-0.3 2.3-2.9 5-5.8 2.8-2.8 8.5-8.9 12.8-13.4 4.2-4.6 8.7-9.4 10-10.8 1.2-1.4 2.2-2.7 2.2-3 0-0.3-2.8-0.5-6.2-0.5-6.1 0.1-6.4 0.2-9.8 4.1zm35-1.1c-1.4 1.6-3.3 3-4.2 3-1 0-1.8 0.5-1.8 1 0 0.6-0.6 1-1.2 1-0.7 0-2 0.9-2.8 2-0.8 1.1-2.3 2-3.2 2-1 0-1.8 0.4-1.8 1 0 0.6-0.8 1-1.7 1-1 0-2.5 0.9-3.3 2-0.8 1.1-2.1 2-2.7 2-0.7 0-1.3 0.4-1.3 1 0 0.6-0.8 1-1.7 1-1 0-2.5 0.9-3.3 2-0.8 1.1-2.3 2-3.2 2-1 0-1.8 0.4-1.8 1 0 0.6-0.9 1-2 1-1.1 0-2.2 0.7-2.5 1.5-0.3 0.8-0.5 1.7-0.5 2 0 0.3 3.4 0.5 7.5 0.5 4.3 0 7.5-0.4 7.5-1 0-0.6 0.7-1 1.5-1 0.8 0 1.5-0.4 1.5-1 0-0.6 0.9-1 2-1 1.1 0 2-0.4 2-1 0-0.6 0.9-1 2-1 1.6 0 2 0.7 2 3 0 2.8 0.2 3 4.1 3 2.3 0 4.7-0.6 5.5-1.5 0.8-0.8 1.4-2.1 1.4-2.8 0-0.6 0.9-1.9 2-2.7 1.1-0.8 2-2.2 2.1-3 0-0.8 0.8-2.2 1.8-3 1-0.8 2.1-2.7 2.4-4.3 0.4-1.5 1.2-2.7 1.7-2.7 0.6 0 1-0.8 1-1.7 0-1 0.9-2.5 2-3.3 1.1-0.8 2-2.3 2-3.3 0-1.4-0.9-1.7-5.2-1.7-4.6 0.1-5.6 0.4-7.8 3zm24-2c0 0.5-0.5 1-1 1-0.6 0-3.1 2-5.5 4.5-2.4 2.4-4.5 5.1-4.5 6 0 0.8 0.5 1.5 1 1.5 0.6 0 1 1.1 1 2.5 0 1.4-1.1 3.6-2.5 5-1.3 1.4-3.1 2.5-4 2.5-0.9 0-2.7 1.1-4 2.5-1.4 1.4-2.5 2.7-2.5 3 0 0.3 3.2 0.5 7 0.5 6.4 0 7.2-0.2 10-3 1.7-1.6 3.2-3 3.5-3 0.3 0 1.7-1.1 3-2.5 1.4-1.4 2.5-3.6 2.5-5 0-1.4-0.4-2.5-1-2.5-0.6 0-1-0.7-1-1.5 0-0.8 0.6-2.2 1.4-3 1-1 3.4-1.5 7.5-1.5 3.4 0 6.1 0.2 6.1 0.5 0 0.3-1 1.6-2.2 3-1.3 1.4-5.6 5.9-9.5 10-4 4.1-7.3 7.7-7.3 8 0 0.3 3.2 0.5 7 0.5 4 0 7-0.4 7-1 0-0.6 3.5-4.5 7.8-8.9 4.2-4.3 8.4-8.8 9.2-10 1-1.4 2.5-2.1 4.8-2.1q3.3 0 5.7-2.5c1.4-1.4 2.5-3.2 2.5-4 0-1.3-3-1.5-21-1.5-13.3 0-21 0.4-21 1zm-120.9 66.4c-0.7 0.8-1.5 3-1.7 5-0.2 2-0.8 3.6-1.4 3.6-0.5 0-1 0.9-1 2 0 1.1-0.4 2-1 2-0.5 0-1 0.4-1 1 0 0.5 0.9 1 2.1 1 1.1 0 2.7-0.7 3.5-1.5 0.8-0.8 1.4-2.2 1.4-3 0-0.8 0.5-1.5 1-1.5 0.6 0 1-0.9 1-2 0-1.1 0.5-2 1-2 0.6 0 1-1.3 1-3 0-2.2-0.5-3-1.7-3-1 0.1-2.4 0.7-3.2 1.4zm19.9-0.4c0 0.5 0.5 1 1 1 0.6 0 1-0.5 1-1 0-0.6-0.4-1-1-1-0.5 0-1 0.4-1 1zm9 7v8h6v-16h-6zm12 0c0 7.9 0 8 2.5 8 2.5 0 2.5-0.1 2.5-8 0-7.9 0-8-2.5-8-2.5 0-2.5 0.1-2.5 8zm11-7.5c0 0.3 1.6 2.1 3.5 4 3.1 3.1 4.1 3.5 8.5 3.5 2.8 0 5 0.4 5 1 0 0.5 0.9 1 2 1 1.4 0 2.2 0.9 2.8 3 0.6 2.5 1.2 3 3.5 3 2.3 0 2.7-0.4 2.7-2.8 0-1.6-0.8-3.3-2-4.2-1.1-0.8-2-2.3-2-3.3 0-1.3-0.8-1.7-3.5-1.7-1.9 0-3.5-0.5-3.5-1 0-0.6-2.2-1-5-1-2.7 0-5-0.5-5-1 0-0.6-1.6-1-3.5-1-1.9 0-3.5 0.2-3.5 0.5zm34 0c0 0.3 0.6 1.1 1.3 1.9 0.6 0.7 1.9 2.3 2.7 3.5 1.2 1.7 2.5 2.1 7.3 2.1 3.1 0 5.7 0.4 5.7 1 0 0.5 0.5 1 1 1 0.6 0 1.7 0.7 2.5 1.5 0.8 0.8 1.5 2.2 1.5 3q0 1.5 3 1.5c2.6 0 3-0.4 3-2.8 0-1.6-0.8-3.3-2-4.2-1.1-0.8-2-2.3-2-3.3 0-1.3-0.8-1.7-3.5-1.7-1.9 0-3.5-0.5-3.5-1 0-0.6-2.2-1-5-1-2.7 0-5-0.5-5-1 0-0.6-1.6-1-3.5-1-1.9 0-3.5 0.2-3.5 0.5zm33 7.5v8h6v-16h-6zm12 0v8c5.4 0 7-0.5 7-1 0-0.6-0.4-1-1-1-0.6 0-1-3-1-7 0-6.8-0.1-7-2.5-7-2.5 0-2.5 0.1-2.5 8zm22-1c0 4-0.4 7-1 7-0.5 0-1 0.4-1 1 0 0.5 1.8 1 4 1h4v-16h-6zm11 1v8h6v-16h-6zm10-7c0 0.5 0.5 1 1 1 0.6 0 1 0.9 1 2 0 1.1 0.5 2 1 2 0.6 0 1.3 1.7 1.6 3.7 0.4 2.1 1.3 4.4 2 5 0.8 0.7 2.1 1.3 2.9 1.3 0.8 0 1.5-0.9 1.5-2 0-1.1-0.4-2-1-2-0.5 0-1-0.9-1-2 0-1.1-0.4-2-1-2-0.5 0-1-0.9-1-2 0-1.1-0.4-2-1-2-0.5 0-1-0.9-1-2 0-1.5-0.7-2-2.5-2-1.4 0-2.5 0.4-2.5 1zm13 7v8h6v-16h-6zm-149.7-39.4c-2.4 2.4-4.3 4.6-4.3 4.9 0 0.3 27.3 0.5 60.6 0.5 52.5 0 60.7-0.2 62-1.5 0.8-0.8 1.4-1.7 1.4-2 0-0.3-25.6-0.5-57-0.5-37.3 0-57-0.3-57-1 0-0.6 0.7-1.7 1.5-2.5 0.8-0.8 1.5-1.7 1.5-2 0-0.3-1-0.5-2.2-0.4-1.3 0-4.1 1.9-6.5 4.5zm25.5-27.5c-2.7 2.7-4.8 5.3-4.8 5.9 0 0.5 0.9 1 2 1 1.1 0 4.5-2.5 7.5-5.5 3-3 5.5-5.7 5.5-6 0-0.3-1.2-0.5-2.7-0.4-2 0-4.2 1.5-7.5 5zm37.1-3.1c-0.8 1.1-2.2 2-3.1 2-1 0-1.8 0.4-1.8 1 0 0.5-0.8 1-1.7 1-1 0-2.5 0.9-3.3 2-0.8 1.1-2.1 2-2.7 2-0.7 0-1.3 0.4-1.3 1 0 0.6 2.7 1 6 1 5 0 6.5-0.4 8.4-2.3 1.2-1.2 2.5-3.4 2.9-5 0.4-1.5 1.2-2.7 1.7-2.7 0.6 0 1-0.5 1-1 0-0.6-1-1-2.3-1-1.3 0-3 0.9-3.8 2zm23.1-1c0 0.5-0.9 1-2 1-1.1 0-2 0.4-2 1 0.1 0.5-1 2-2.4 3.4-1.4 1.4-2.5 3.2-2.6 4.1 0 0.9 0.9 1.5 2.5 1.5 1.6 0 2.5-0.6 2.5-1.5 0-0.8 1.1-2.6 2.5-4 2.2-2.3 3.1-2.5 12.5-2.5 5.5 0 10 0.2 10 0.5 0 0.3-1.3 1.8-3 3.5-1.7 1.6-3 3.2-3 3.5 0 0.3 1.1 0.5 2.5 0.5 1.4 0 3.8-1.3 5.5-3 1.7-1.7 3-3.5 3-4 0-0.6 1.6-1 3.6-1 1.9 0 4.2-0.7 5-1.5 0.8-0.8 1.4-1.7 1.4-2 0-0.3-8.1-0.5-18-0.5-11.3 0-18 0.4-18 1zm-47 22c0 0.5-0.7 1-1.5 1-0.8 0-1.5 0.4-1.5 1 0 0.5 0.7 1 1.5 1 0.8 0 1.5-0.5 1.5-1 0-0.6 0.9-1 2-1 1.1 0 2-0.5 2-1 0-0.6-0.9-1-2-1-1.1 0-2 0.4-2 1zm-26.2-3.9c-3.8 3.8-6.8 7.3-6.8 7.9 0 0.5 0.8 1 1.9 1 1 0 4.5-2.7 7.7-6 3.3-3.2 6.5-6.6 7.2-7.5 0.6-0.8 1.2-1.7 1.2-2 0-0.3-1-0.5-2.2-0.4-1.5 0-4.8 2.6-9 7zm31.1-5.1c-0.8 1.1-2.2 2-3.1 2-1 0-1.8 0.4-1.8 1 0 0.5-0.6 1-1.2 1-0.7 0-2 0.9-2.8 2-0.8 1.1-2.3 2-3.2 2-1 0-1.8 0.4-1.8 1 0 0.5-0.9 1-2 1-1.1 0-2 0.4-2 1 0 0.5 2.3 1 5 1 2.8 0 5-0.5 5-1 0-0.6 0.7-1 1.5-1 0.8 0 1.5-0.5 1.5-1 0-0.6 0.9-1 2-1 1.1 0 2-0.5 2-1 0-0.6 1.8-1 4-1 3.8 0 4 0.2 4 3q0 3 1.5 3c0.8 0 1.5-0.8 1.5-1.8 0-0.9 0.9-2.4 2-3.2 1.1-0.8 2-2.2 2-3 0-0.8 0.9-2.2 2-3 1.1-0.8 2-1.8 2-2.3 0-0.4-3.7-0.7-8.3-0.7-7.2 0-8.5 0.3-9.8 2zm35.1 0.5c0 1.5-1.4 3.9-3.5 6-2.1 2.2-4.4 3.5-6 3.5-1.4 0-2.5 0.4-2.5 1 0 0.5 1.6 1 3.5 1 2.6 0 4.3-0.8 6.5-3 1.7-1.7 3.3-3 3.6-3 0.3 0 1.2-0.7 2-1.5 0.8-0.8 1.4-2.6 1.4-4 0-2-0.5-2.5-2.5-2.5-2 0-2.5 0.5-2.5 2.5zm18.9-0.4c-0.8 1.2-3.3 4.2-5.6 6.5-2.4 2.4-4.3 4.6-4.3 4.9 0 0.3 1.2 0.5 2.8 0.5 1.6 0 3.3-0.8 4.2-2.1 0.8-1.2 3.4-4.2 5.8-6.5 2.3-2.4 4.2-4.6 4.2-4.9 0-0.3-1.3-0.5-2.8-0.5-1.8 0-3.4 0.8-4.3 2.1z"/>
		<path class="s1" d="m3.3 83.5c-0.7 0.8-1.3 2.2-1.3 3 0 0.8-0.4 1.5-1 1.5-0.5 0-1 0.9-1 2 0 1.6 0.7 2 3 2 2.3 0 3-0.4 3-2 0-1.1 0.4-2.1 0.8-2.3 0.5-0.1 1.2-1.4 1.5-3 0.6-2.3 0.4-2.7-1.5-2.7-1.3 0.1-2.9 0.7-3.5 1.5zm35.7 3.5c0 4.9 0.1 5 3 5 2.9 0 3-0.1 3-5 0-4.9-0.1-5-3-5-2.9 0-3 0.1-3 5zm12 0c0 4.7 0.2 5 2.5 5 2.3 0 2.5-0.3 2.5-5 0-4.7-0.2-5-2.5-5-2.3 0-2.5 0.3-2.5 5zm30-4c0 0.5-1.8 1-4 1-2.2 0-4 0.5-4 1 0 0.5-2.5 1-5.5 1-5.4 0-5.5 0-5.5 3 0 3 0.1 3 5.5 3 3 0 5.5-0.5 5.5-1 0-0.5 1.8-1 4-1 2.2 0 4-0.5 4-1 0-0.5 0.7-1 1.5-1 0.8 0 1.5-0.5 1.5-1 0-0.5 0.7-1 1.6-1 0.8 0 2.2-0.7 3-1.5 0.8-0.8 1.4-1.7 1.4-2 0-0.3-2-0.5-4.5-0.5-2.5 0-4.5 0.5-4.5 1zm33 0c0 0.5-1.6 1-3.5 1-1.9 0-3.5 0.5-3.5 1 0 0.5-2.5 1-5.5 1-5.4 0-5.5 0-5.5 3 0 3 0.1 3 5.5 3 3 0 5.5-0.5 5.5-1 0-0.5 1.6-1 3.5-1 1.9 0 3.5-0.5 3.5-1 0-0.5 0.9-1 2-1 1.1 0 2-0.5 2-1 0-0.5 0.7-1 1.6-1 0.8 0 2.2-0.7 3-1.5 0.8-0.8 1.4-1.7 1.4-2 0-0.3-2.3-0.5-5-0.5-2.8 0-5 0.5-5 1zm15 4c0 4.9 0.1 5 3 5 2.9 0 3-0.1 3-5 0-4.9-0.1-5-3-5-2.9 0-3 0.1-3 5zm12-4.5c0 0.3 0.6 1.2 1.2 2 0.7 0.9 2.5 2.9 4 4.5 2.5 2.6 3.5 3 8.3 3 5.2 0 5.8-0.2 10-4.5 2.5-2.5 4.5-4.7 4.5-5 0-0.3-2.3-0.5-5-0.5-4.2 0-5.1 0.3-5.5 2-0.3 1.4-1.3 2-3.3 2-1.6 0-3.3-0.8-4.2-2-1.1-1.5-2.6-2-5.8-2-2.3 0-4.2 0.2-4.2 0.5zm33 4.5c0 4.9 0.1 5 3 5 2.9 0 3-0.1 3-5 0-4.9-0.1-5-3-5-2.9 0-3 0.1-3 5zm17-4c0 0.5 0.4 1 1 1 0.6 0 1 0.7 1 1.5 0 0.8 1.1 2.6 2.5 4 1.4 1.4 3.6 2.5 5 2.5 2.3 0 2.5-0.3 2.5-5v-5c-9.3 0-12 0.4-12 1z"/>
		<path class="s2" d="m18.3 51.5c-0.7 0.8-1.3 2.2-1.3 3 0 0.8-0.4 1.5-1 1.5-0.6 0-1 0.9-1 2 0 1.1-0.4 2-1 2-0.6 0-1 0.9-1 2 0 1.1-0.4 2-1 2-0.6 0-1 0.5-1 1 0 0.5 0.9 1 2 1 1.1 0 2 0.5 2 1 0 0.5 0.4 1 1 1 0.6 0 1-0.9 1-2 0-1.1 0.4-2 1-2 0.6 0 1-0.9 1-2q0-2 2-2c1.3 0 2.2 0.9 2.7 2.8 0.4 1.5 1.7 3.7 3 5 1.3 1.2 2.5 2.2 2.8 2.2 0.3 0 0.5-0.9 0.5-2 0-1.1 0.7-2 1.5-2 0.8 0 2.9-1.3 4.5-3l3-3c0 5.7 0.3 6 3 6h3c0-10.9-0.5-13.5-1.5-14.5-0.8-0.8-2.2-1.5-3-1.5-0.8 0-1.5 0.5-1.5 1 0 0.5-2.3 3.3-5 6-4.4 4.4-5.2 4.8-6.5 3.5-0.8-0.8-1.5-2.2-1.5-3 0-0.8-0.3-1.5-0.8-1.5-0.4 0-1-1.3-1.5-3-0.4-1.9-1.3-3-2.5-3-0.9 0.1-2.3 0.7-3 1.5zm32.8 6.5c0 7.9 0 8 2.5 8 2.5 0 2.5-0.1 2.5-8 0-7.9 0-8-2.5-8-2.5 0-2.5 0.1-2.5 8zm28-7c0 0.5-1.8 1-4 1-2.2 0-4 0.5-4 1 0 0.5-0.5 1-1 1-0.6 0-2.6 1.6-4.5 3.5-2.1 2.1-3.5 4.5-3.5 6 0 2.1 0.5 2.5 2.8 2.5 2.2 0 2.8-0.5 3.5-3 0.5-2.1 1.3-3 2.7-3 1.1 0 2-0.5 2-1 0-0.5 1.8-1 4-1 2.2 0 4-0.5 4-1 0-0.5 2-1 4.5-1 4.3 0 4.5-0.1 4.5-3 0-3-0.1-3-5.5-3-3 0-5.5 0.5-5.5 1zm34 0c0 0.5-1.8 1-4 1-2.2 0-4 0.5-4 1 0 0.5-0.8 1-1.8 1-0.9 0-2.4 1-3.2 2.1-0.8 1.2-2.1 2.8-2.7 3.5-0.7 0.8-1.3 2.5-1.3 3.9 0 2 0.5 2.5 2.5 2.5 1.6 0 2.5-0.6 2.5-1.5 0-0.8 0.6-2.2 1.4-3 0.8-0.8 2.2-1.5 3-1.5 0.9 0 1.6-0.5 1.6-1 0-0.5 1.6-1 3.5-1 1.9 0 3.5-0.5 3.5-1 0-0.5 2.3-1 5-1 4.9 0 5-0.1 5-3 0-3-0.1-3-5.5-3-3 0-5.5 0.5-5.5 1zm16 7v8h6v-16h-6zm17-4.9c-1.4 1.6-3.1 3.7-3.7 4.4-0.7 0.8-1.3 3.1-1.3 5 0 3.1 0.3 3.5 2.5 3.5 1.6 0 2.5-0.6 2.5-1.5 0-0.8 1.6-3.1 3.5-5 2.1-2.2 4.4-3.5 6-3.5 1.4 0 2.5 0.5 2.5 1 0 0.5 1.1 2.1 2.5 3.5 1.4 1.4 2.5 3.2 2.5 4q0 1.5 3 1.5c2.8 0 3-0.3 3-3.5 0-2.8-0.9-4.4-4.5-8-4.3-4.3-4.8-4.5-10.2-4.5-5.2 0.1-6.1 0.4-8.3 3.1zm28 4.9v8c5.7 0 6-0.3 6-3 0-1.6 0.4-3 1-3 0.6 0 1 0.7 1 1.5 0 0.8 0.7 2.2 1.5 3 0.8 0.8 2.2 1.5 3 1.5 0.8 0 1.5-0.9 1.5-2 0-1.1-0.4-2-1-2-0.6 0-1-0.9-1-2 0-1.1-0.4-2-1-2-0.6 0-1-0.7-1-1.5 0-0.8-1.1-2.6-2.5-4-1.4-1.4-3.6-2.5-5-2.5-2.5 0-2.5 0.1-2.5 8zm23 0v8h6v-16h-6z"/>
		<path class="s3" d="m72 4.1c-1.9 2.2-6.9 7.6-11 11.9-4.1 4.4-11 11.6-15.3 16-4.2 4.4-7.7 8.5-7.7 9 0 0.7 22 1 64 1h64.1c5.3-5.4 6.9-7.2 6.9-7.5 0-0.3-25.9-0.5-57.5-0.5-31.6 0-57.5-0.2-57.5-0.5 0-0.3 2.3-2.9 5-5.8 2.8-2.8 8.5-8.9 12.8-13.4 4.2-4.6 8.7-9.4 10-10.8 1.2-1.4 2.2-2.7 2.2-3 0-0.3-2.8-0.5-6.2-0.5-6.1 0.1-6.4 0.2-9.8 4.1zm35-1.1c-1.4 1.6-3.3 3-4.2 3-1 0-1.8 0.5-1.8 1 0 0.6-0.6 1-1.2 1-0.7 0-2 0.9-2.8 2-0.8 1.1-2.3 2-3.2 2-1 0-1.8 0.5-1.8 1 0 0.6-0.8 1-1.7 1-1 0-2.5 0.9-3.3 2-0.8 1.1-2.1 2-2.7 2-0.7 0-1.3 0.5-1.3 1 0 0.6-0.8 1-1.7 1-1 0-2.5 0.9-3.3 2-0.8 1.1-2.3 2-3.2 2-1 0-1.8 0.5-1.8 1 0 0.6-0.9 1-2 1-1.1 0-2.2 0.7-2.5 1.5-0.3 0.8-0.5 1.7-0.5 2 0 0.3 3.4 0.5 7.5 0.5 4.3 0 7.5-0.4 7.5-1 0-0.5 0.7-1 1.5-1 0.8 0 1.5-0.4 1.5-1 0-0.5 0.9-1 2-1 1.1 0 2-0.4 2-1 0-0.5 0.9-1 2-1 1.6 0 2 0.7 2 3 0 2.8 0.2 3 4.1 3 2.3 0 4.7-0.6 5.5-1.5 0.8-0.8 1.4-2.1 1.4-2.7 0-0.7 0.9-2 2-2.8 1.1-0.8 2-2.2 2.1-3 0-0.8 0.8-2.2 1.8-3 1-0.8 2.1-2.7 2.4-4.2 0.4-1.6 1.2-2.8 1.7-2.8 0.6 0 1-0.8 1-1.7 0-1 0.9-2.5 2-3.3 1.1-0.8 2-2.3 2-3.2 0-1.5-0.9-1.8-5.2-1.8-4.6 0.1-5.6 0.4-7.8 3zm24-2c0 0.6-0.5 1-1 1-0.6 0-3.1 2-5.5 4.5-2.4 2.4-4.5 5.1-4.5 6 0 0.8 0.5 1.5 1 1.5 0.6 0 1 1.1 1 2.5 0 1.4-1.1 3.6-2.5 5-1.3 1.4-3.1 2.5-4 2.5-0.9 0-2.7 1.1-4 2.5-1.4 1.4-2.5 2.7-2.5 3 0 0.3 3.2 0.5 7 0.5 6.4 0 7.2-0.2 10-3 1.7-1.6 3.2-3 3.5-3 0.3 0 1.7-1.1 3-2.5 1.4-1.4 2.5-3.6 2.5-5 0-1.4-0.4-2.5-1-2.5-0.6 0-1-0.7-1-1.5 0-0.8 0.6-2.2 1.4-3 1-1 3.4-1.5 7.5-1.5 3.4 0 6.1 0.2 6.1 0.5 0 0.3-1 1.6-2.2 3-1.3 1.4-5.6 5.9-9.5 10-4 4.1-7.3 7.7-7.3 8 0 0.3 3.2 0.5 7 0.5 4 0 7-0.4 7-1 0-0.5 3.5-4.5 7.8-8.9 4.2-4.3 8.4-8.8 9.2-10 1-1.4 2.5-2.1 4.8-2.1q3.3 0 5.7-2.5c1.4-1.4 2.5-3.2 2.5-4 0-1.3-3-1.5-21-1.5-13.3 0-21 0.4-21 1z"/>
		<path class="s4" d="m10.1 67.4c-0.7 0.8-1.5 3-1.7 5-0.2 2-0.8 3.6-1.4 3.6-0.5 0-1 0.9-1 2 0 1.1-0.4 2-1 2-0.5 0-1 0.4-1 1 0 0.5 0.9 1 2.1 1 1.1 0 2.7-0.7 3.5-1.5 0.8-0.8 1.4-2.2 1.4-3 0-0.8 0.4-1.5 1-1.5 0.6 0 1-0.9 1-2 0-1.1 0.4-2 1-2 0.6 0 1-1.4 1-3 0-2.2-0.5-3-1.7-3-1 0.1-2.4 0.7-3.2 1.4zm19.9-0.4c0 0.5 0.5 1 1 1 0.5 0 1-0.5 1-1 0-0.6-0.5-1-1-1-0.5 0-1 0.4-1 1zm9 7v8h6v-16h-6zm12 0c0 7.9 0 8 2.5 8 2.5 0 2.5-0.1 2.5-8 0-7.9 0-8-2.5-8-2.5 0-2.5 0.1-2.5 8zm11-7.5c0 0.3 1.6 2.1 3.5 4 3.1 3.1 4.1 3.5 8.5 3.5 2.8 0 5 0.4 5 1 0 0.5 0.9 1 2 1 1.4 0 2.2 0.9 2.8 3 0.6 2.5 1.2 3 3.5 3 2.3 0 2.7-0.4 2.7-2.8 0-1.6-0.8-3.3-2-4.2-1.1-0.8-2-2.3-2-3.3 0-1.3-0.8-1.7-3.5-1.7-1.9 0-3.5-0.5-3.5-1 0-0.6-2.2-1-5-1-2.7 0-5-0.5-5-1 0-0.6-1.6-1-3.5-1-1.9 0-3.5 0.2-3.5 0.5zm34 0c0 0.3 0.6 1.1 1.3 1.9 0.6 0.7 1.9 2.3 2.7 3.5 1.2 1.7 2.5 2.1 7.3 2.1 3.1 0 5.7 0.4 5.7 1 0 0.5 0.5 1 1 1 0.5 0 1.7 0.7 2.5 1.5 0.8 0.8 1.5 2.2 1.5 3q0 1.5 3 1.5c2.6 0 3-0.4 3-2.8 0-1.6-0.8-3.3-2-4.2-1.1-0.8-2-2.3-2-3.3 0-1.3-0.8-1.7-3.5-1.7-1.9 0-3.5-0.5-3.5-1 0-0.6-2.2-1-5-1-2.7 0-5-0.5-5-1 0-0.6-1.6-1-3.5-1-1.9 0-3.5 0.2-3.5 0.5zm33 7.5v8h6v-16h-6zm12 0v8c5.4 0 7-0.5 7-1 0-0.6-0.4-1-1-1-0.6 0-1-3-1-7 0-6.8-0.1-7-2.5-7-2.5 0-2.5 0.1-2.5 8zm22-1c0 4-0.4 7-1 7-0.6 0-1 0.4-1 1 0 0.5 1.8 1 4 1h4v-16h-6zm11 1v8h6v-16h-6zm10-7c0 0.5 0.4 1 1 1 0.6 0 1 0.9 1 2 0 1.1 0.4 2 1 2 0.6 0 1.3 1.7 1.6 3.7 0.4 2.1 1.3 4.4 2 5 0.8 0.7 2.1 1.3 2.9 1.3 0.8 0 1.5-0.9 1.5-2 0-1.1-0.4-2-1-2-0.6 0-1-0.9-1-2 0-1.1-0.4-2-1-2-0.6 0-1-0.9-1-2 0-1.1-0.4-2-1-2-0.6 0-1-0.9-1-2 0-1.5-0.7-2-2.5-2-1.4 0-2.5 0.4-2.5 1zm13 7v8h6v-16h-6z"/>
		<path class="s1" d="m47.3 34.6c-2.4 2.4-4.3 4.6-4.3 4.9 0 0.3 27.3 0.5 60.6 0.5 52.5 0 60.7-0.2 62-1.5 0.8-0.8 1.4-1.7 1.4-2 0-0.3-25.6-0.5-57-0.5-37.3 0-57-0.3-57-1 0-0.5 0.7-1.7 1.5-2.5 0.8-0.8 1.5-1.7 1.5-2 0-0.3-1-0.5-2.2-0.4-1.3 0-4.1 1.9-6.5 4.5z"/>
		<path class="s2" d="m72.8 7.1c-2.7 2.7-4.8 5.3-4.8 5.9 0 0.6 0.9 1 2 1 1.1 0 4.5-2.5 7.5-5.5 3-3 5.5-5.7 5.5-6 0-0.3-1.2-0.5-2.7-0.4-2 0-4.2 1.5-7.5 5zm37.1-3.1c-0.8 1.1-2.2 2-3.1 2-1 0-1.8 0.5-1.8 1 0 0.6-0.8 1-1.7 1-1 0-2.5 0.9-3.3 2-0.8 1.1-2.1 2-2.7 2-0.7 0-1.3 0.4-1.3 1 0 0.6 2.7 1 6 1 5 0 6.5-0.4 8.4-2.2 1.2-1.3 2.5-3.5 2.9-5 0.4-1.6 1.2-2.8 1.7-2.8 0.5 0 1-0.4 1-1 0-0.5-1-1-2.3-1-1.3 0-3 0.9-3.8 2zm23.1-1c0 0.6-0.9 1-2 1-1.1 0-2 0.4-2 1 0.1 0.5-1 2-2.4 3.4-1.4 1.4-2.5 3.2-2.6 4.1 0 0.9 0.9 1.5 2.5 1.5 1.6 0 2.5-0.6 2.5-1.5 0-0.8 1.1-2.6 2.5-4 2.2-2.3 3.1-2.5 12.5-2.5 5.5 0 10 0.2 10 0.5 0 0.3-1.3 1.9-3 3.5-1.7 1.7-3 3.2-3 3.5 0 0.3 1.1 0.5 2.5 0.5 1.4 0 3.8-1.3 5.5-3 1.7-1.6 3-3.4 3-4 0-0.5 1.6-1 3.6-1 1.9 0 4.2-0.7 5-1.5 0.8-0.8 1.4-1.7 1.4-2 0-0.3-8.1-0.5-18-0.5-11.3 0-18 0.4-18 1z"/>
		<path class="s3" d="m86 25c0 0.6-0.7 1-1.5 1-0.8 0-1.5 0.4-1.5 1 0 0.6 0.7 1 1.5 1 0.8 0 1.5-0.4 1.5-1 0-0.6 0.9-1 2-1 1.1 0 2-0.4 2-1 0-0.6-0.9-1-2-1-1.1 0-2 0.4-2 1z"/>
		<path class="s4" d="m59.8 21.1c-3.8 3.8-6.8 7.3-6.8 7.9 0 0.5 0.8 1 1.9 1 1 0 4.5-2.7 7.7-6 3.3-3.2 6.5-6.6 7.2-7.5 0.6-0.8 1.2-1.7 1.2-2 0-0.3-1-0.5-2.2-0.4-1.5 0-4.8 2.6-9 7zm31.1-5.1c-0.8 1.1-2.2 2-3.1 2-1 0-1.8 0.4-1.8 1 0 0.5-0.6 1-1.2 1-0.7 0-2 0.9-2.8 2-0.8 1.1-2.3 2-3.2 2-1 0-1.8 0.4-1.8 1 0 0.5-0.9 1-2 1-1.1 0-2 0.4-2 1 0 0.5 2.3 1 5 1 2.8 0 5-0.5 5-1 0-0.6 0.7-1 1.5-1 0.8 0 1.5-0.5 1.5-1 0-0.6 0.9-1 2-1 1.1 0 2-0.5 2-1 0-0.6 1.8-1 4-1 3.8 0 4 0.2 4 3q0 3 1.5 3c0.8 0 1.5-0.8 1.5-1.8 0-0.9 0.9-2.4 2-3.2 1.1-0.8 2-2.2 2-3 0-0.8 0.9-2.2 2-3 1.1-0.8 2-1.8 2-2.3 0-0.4-3.7-0.7-8.3-0.7-7.2 0-8.5 0.3-9.8 2zm35.1 0.5c0 1.5-1.4 3.9-3.5 6-2.1 2.2-4.4 3.5-6 3.5-1.4 0-2.5 0.4-2.5 1 0 0.5 1.6 1 3.5 1 2.6 0 4.3-0.8 6.5-3 1.7-1.7 3.3-3 3.6-3 0.3 0 1.2-0.7 2-1.5 0.8-0.8 1.4-2.6 1.4-4 0-2-0.5-2.5-2.5-2.5-2 0-2.5 0.5-2.5 2.5zm18.9-0.4c-0.8 1.2-3.3 4.2-5.6 6.5-2.4 2.4-4.3 4.6-4.3 4.9 0 0.3 1.2 0.5 2.8 0.5 1.6 0 3.3-0.8 4.2-2.1 0.8-1.2 3.4-4.2 5.8-6.5 2.3-2.4 4.2-4.6 4.2-4.9 0-0.3-1.3-0.5-2.8-0.5-1.8 0-3.4 0.8-4.3 2.1z"/>
	</g>
</svg>