<svg version="1.2" xmlns="http://www.w3.org/2000/svg" viewBox="0 0 640 512" width="640" height="512">
    <path style="fill: #B2B2B2; stroke: black;" d="
        M353.8 14c-1-8-7.8-14-15.9-14H302.1c-8.1 0-14.9 6-15.9 14L256 256v96H224v64c0 17.7-14.3 32-32 32H160c-17.7 0-32-14.3-32-32V352H72v92l88 26.4V480c0 17.7 14.3 32 32 32s32-14.3 32-32h48 96 48c0 17.7 14.3 32 32 32s32-14.3 32-32v-9.6L568 444V352H512v64c0 17.7-14.3 32-32 32H448c-17.7 0-32-14.3-32-32V352H384V256L353.8 14z
        M288 256c0-17.7 14.3-32 32-32s32 14.3 32 32v48c0 8.8-7.2 16-16 16H304c-8.8 0-16-7.2-16-16V256z
    "/>
    <path style="fill: gray; stroke: black;" d="
        M48 72c13.3 0 24 10.7 24 24v24c13.3 0 24 10.7 24 24s-10.7 24-24 24V448c0 13.3-10.7 24-24 24s-24-10.7-24-24V168c-13.3 0-24-10.7-24-24s10.7-24 24-24V96c0-13.3 10.7-24 24-24z
        m544 0c13.3 0 24 10.7 24 24v24c13.3 0 24 10.7 24 24s-10.7 24-24 24V448c0 13.3-10.7 24-24 24s-24-10.7-24-24V168c-13.3 0-24-10.7-24-24s10.7-24 24-24V96c0-13.3 10.7-24 24-24z
    "/>
    <path style="fill: gray; stroke: black;" d="
        M128 320c0-17.7 14.3-32 32-32h32c17.7 0 32 14.3 32 32v96c0 17.7-14.3 32-32 32H160c-17.7 0-32-14.3-32-32V320z
        m352-32c17.7 0 32 14.3 32 32v96c0 17.7-14.3 32-32 32H448c-17.7 0-32-14.3-32-32V320c0-17.7 14.3-32 32-32h32z
    "/>
    <path style="fill: black; stroke: white;" d="
        M320 224c17.7 0 32 14.3 32 32v48c0 8.8-7.2 16-16 16H304c-8.8 0-16-7.2-16-16V256c0-17.7 14.3-32 32-32z
    "/>
</svg>